<svg xmlns="http://www.w3.org/2000/svg" xmlns:xlink="http://www.w3.org/1999/xlink" xmlns:lucid="lucid" width="1515.95" height="1380.26"><g transform="translate(0 0)" lucid:page-tab-id="HWEp-vi-RSFO"><path d="M141 803h360v182H141z" stroke="#333" stroke-width="2" fill="#fff"/><path d="M141 840.6h360M141 945h360" stroke="#333" stroke-width="2" fill="none"/><use xlink:href="#a" transform="matrix(1,0,0,1,149,811) translate(137.05 14.6)"/><use xlink:href="#b" transform="matrix(1,0,0,1,153,848.6) translate(101.35 15.69999999999999)"/><use xlink:href="#c" transform="matrix(1,0,0,1,153,848.6) translate(116.85 15.69999999999999)"/><use xlink:href="#d" transform="matrix(1,0,0,1,153,848.6) translate(187.75 15.69999999999999)"/><use xlink:href="#e" transform="matrix(1,0,0,1,153,848.6) translate(113.82499999999999 37.29999999999999)"/><use xlink:href="#f" transform="matrix(1,0,0,1,153,848.6) translate(129.325 37.29999999999999)"/><use xlink:href="#g" transform="matrix(1,0,0,1,153,848.6) translate(203.225 37.29999999999999)"/><use xlink:href="#e" transform="matrix(1,0,0,1,153,848.6) translate(99.825 58.89999999999999)"/><use xlink:href="#h" transform="matrix(1,0,0,1,153,848.6) translate(115.325 58.89999999999999)"/><use xlink:href="#d" transform="matrix(1,0,0,1,153,848.6) translate(189.275 58.89999999999999)"/><use xlink:href="#i" transform="matrix(1,0,0,1,153,848.6) translate(95.875 80.5)"/><use xlink:href="#j" transform="matrix(1,0,0,1,153,848.6) translate(111.375 80.5)"/><use xlink:href="#k" transform="matrix(1,0,0,1,153,848.6) translate(193.225 80.5)"/><path d="M601 261h360v290H601z" stroke="#333" stroke-width="2" fill="#fff"/><path d="M601 298.6h360M601 511h360" stroke="#333" stroke-width="2" fill="none"/><use xlink:href="#l" transform="matrix(1,0,0,1,609,269) translate(136.025 14.6)"/><use xlink:href="#b" transform="matrix(1,0,0,1,613,306.6) translate(101.35 15.700000000000012)"/><use xlink:href="#c" transform="matrix(1,0,0,1,613,306.6) translate(116.85 15.700000000000012)"/><use xlink:href="#d" transform="matrix(1,0,0,1,613,306.6) translate(187.75 15.700000000000012)"/><use xlink:href="#e" transform="matrix(1,0,0,1,613,306.6) translate(93.275 37.30000000000001)"/><use xlink:href="#m" transform="matrix(1,0,0,1,613,306.6) translate(108.775 37.30000000000001)"/><use xlink:href="#g" transform="matrix(1,0,0,1,613,306.6) translate(223.775 37.30000000000001)"/><use xlink:href="#e" transform="matrix(1,0,0,1,613,306.6) translate(95.825 58.90000000000001)"/><use xlink:href="#n" transform="matrix(1,0,0,1,613,306.6) translate(111.325 58.90000000000001)"/><use xlink:href="#g" transform="matrix(1,0,0,1,613,306.6) translate(221.22500000000002 58.90000000000001)"/><use xlink:href="#e" transform="matrix(1,0,0,1,613,306.6) translate(81.85 80.50000000000003)"/><use xlink:href="#o" transform="matrix(1,0,0,1,613,306.6) translate(97.35 80.50000000000003)"/><use xlink:href="#p" transform="matrix(1,0,0,1,613,306.6) translate(210.25 80.50000000000003)"/><use xlink:href="#e" transform="matrix(1,0,0,1,613,306.6) translate(59.35000000000001 102.10000000000002)"/><use xlink:href="#q" transform="matrix(1,0,0,1,613,306.6) translate(74.85000000000001 102.10000000000002)"/><use xlink:href="#g" transform="matrix(1,0,0,1,613,306.6) translate(257.7 102.10000000000002)"/><use xlink:href="#e" transform="matrix(1,0,0,1,613,306.6) translate(76.87499999999999 123.70000000000002)"/><use xlink:href="#r" transform="matrix(1,0,0,1,613,306.6) translate(92.37499999999999 123.70000000000002)"/><use xlink:href="#s" transform="matrix(1,0,0,1,613,306.6) translate(215.22500000000002 123.70000000000002)"/><use xlink:href="#e" transform="matrix(1,0,0,1,613,306.6) translate(78.87499999999999 145.3)"/><use xlink:href="#t" transform="matrix(1,0,0,1,613,306.6) translate(94.37499999999999 145.3)"/><use xlink:href="#d" transform="matrix(1,0,0,1,613,306.6) translate(210.22500000000002 145.3)"/><use xlink:href="#e" transform="matrix(1,0,0,1,613,306.6) translate(73.35 166.9)"/><use xlink:href="#u" transform="matrix(1,0,0,1,613,306.6) translate(88.85 166.9)"/><use xlink:href="#g" transform="matrix(1,0,0,1,613,306.6) translate(243.70000000000002 166.9)"/><use xlink:href="#e" transform="matrix(1,0,0,1,613,306.6) translate(87.80000000000001 188.5)"/><use xlink:href="#v" transform="matrix(1,0,0,1,613,306.6) translate(103.30000000000001 188.5)"/><use xlink:href="#w" transform="matrix(1,0,0,1,613,306.6) translate(229.25 188.5)"/><path d="M1061 315h360v182h-360z" stroke="#333" stroke-width="2" fill="#fff"/><path d="M1061 352.6h360M1061 457h360" stroke="#333" stroke-width="2" fill="none"/><use xlink:href="#x" transform="matrix(1,0,0,1,1069,323) translate(133.075 14.6)"/><use xlink:href="#e" transform="matrix(1,0,0,1,1073,360.6) translate(119.3 15.69999999999999)"/><use xlink:href="#y" transform="matrix(1,0,0,1,1073,360.6) translate(134.8 15.69999999999999)"/><use xlink:href="#g" transform="matrix(1,0,0,1,1073,360.6) translate(197.75 15.69999999999999)"/><use xlink:href="#e" transform="matrix(1,0,0,1,1073,360.6) translate(101.35 37.29999999999999)"/><use xlink:href="#z" transform="matrix(1,0,0,1,1073,360.6) translate(116.85 37.29999999999999)"/><use xlink:href="#d" transform="matrix(1,0,0,1,1073,360.6) translate(187.75 37.29999999999999)"/><use xlink:href="#e" transform="matrix(1,0,0,1,1073,360.6) translate(86.375 58.89999999999999)"/><use xlink:href="#A" transform="matrix(1,0,0,1,1073,360.6) translate(101.875 58.89999999999999)"/><use xlink:href="#d" transform="matrix(1,0,0,1,1073,360.6) translate(202.72500000000002 58.89999999999999)"/><use xlink:href="#e" transform="matrix(1,0,0,1,1073,360.6) translate(34.45000000000002 80.5)"/><use xlink:href="#B" transform="matrix(1,0,0,1,1073,360.6) translate(49.95000000000002 80.5)"/><use xlink:href="#C" transform="matrix(1,0,0,1,1073,360.6) translate(254.65 80.5)"/><path d="M1059.5 406h-97" stroke="#333" fill="none"/><path d="M1060 406.48h-.5v-.96h.5zM962.5 406.48h-.5v-.96h.5z" stroke="#333" stroke-width=".05" fill="#333"/><use xlink:href="#D" transform="matrix(1,0,0,1,962.8490343942022,410) translate(0 14.4)"/><path d="M141 1075.5h360v138H141z" stroke="#333" stroke-width="2" fill="#fff"/><path d="M141 1113.1h360m-360 61.2h360" stroke="#333" stroke-width="2" fill="none"/><use xlink:href="#E" transform="matrix(1,0,0,1,149,1083.5) translate(143.55 14.6)"/><use xlink:href="#F" transform="matrix(1,0,0,1,153,1121.1) translate(119.3 15.799999999999999)"/><use xlink:href="#G" transform="matrix(1,0,0,1,153,1121.1) translate(134.8 15.799999999999999)"/><use xlink:href="#H" transform="matrix(1,0,0,1,153,1121.1) translate(197.75 15.799999999999999)"/><use xlink:href="#b" transform="matrix(1,0,0,1,153,1121.1) translate(102.85 37.4)"/><use xlink:href="#I" transform="matrix(1,0,0,1,153,1121.1) translate(118.35 37.4)"/><use xlink:href="#J" transform="matrix(1,0,0,1,153,1121.1) translate(189.25 37.4)"/><path d="M321 1074v-87.5" stroke="#333" fill="none"/><path d="M321.48 1074.5h-.96v-.5h.96zM321.48 986.5h-.96v-.5h.96z" stroke="#333" stroke-width=".05" fill="#333"/><use xlink:href="#K" transform="matrix(1,0,0,1,329,994.6023478841379) translate(0.004999999999999893 14.4)"/><path d="M141 560h360v138H141z" stroke="#333" stroke-width="2" fill="#fff"/><path d="M141 597.6h360m-360 61.2h360" stroke="#333" stroke-width="2" fill="none"/><use xlink:href="#L" transform="matrix(1,0,0,1,149,568) translate(141 14.6)"/><use xlink:href="#b" transform="matrix(1,0,0,1,153,605.6) translate(101.35 15.799999999999999)"/><use xlink:href="#c" transform="matrix(1,0,0,1,153,605.6) translate(116.85 15.799999999999999)"/><use xlink:href="#d" transform="matrix(1,0,0,1,153,605.6) translate(187.75 15.799999999999999)"/><use xlink:href="#e" transform="matrix(1,0,0,1,153,605.6) translate(113.82499999999999 37.4)"/><use xlink:href="#f" transform="matrix(1,0,0,1,153,605.6) translate(129.325 37.4)"/><use xlink:href="#w" transform="matrix(1,0,0,1,153,605.6) translate(203.225 37.4)"/><path d="M321 801.5v-102" stroke="#333" fill="none"/><path d="M321.48 802h-.96v-.5h.96zM321.48 699.5h-.96v-.5h.96z" stroke="#333" stroke-width=".05" fill="#333"/><use xlink:href="#D" transform="matrix(1,0,0,1,286,717.4325230206099) translate(0 14.4)"/><path d="M1061 792.5h360v203h-360z" stroke="#333" stroke-width="2" fill="#fff"/><path d="M1061 830.1h360m-360 126h360" stroke="#333" stroke-width="2" fill="none"/><use xlink:href="#M" transform="matrix(1,0,0,1,1069,800.5) translate(130.55 14.6)"/><use xlink:href="#e" transform="matrix(1,0,0,1,1073,838.1) translate(136.3 15.899999999999993)"/><use xlink:href="#N" transform="matrix(1,0,0,1,1073,838.1) translate(151.8 15.899999999999993)"/><use xlink:href="#g" transform="matrix(1,0,0,1,1073,838.1) translate(180.75 15.899999999999993)"/><use xlink:href="#e" transform="matrix(1,0,0,1,1073,838.1) translate(102.85 37.49999999999999)"/><use xlink:href="#z" transform="matrix(1,0,0,1,1073,838.1) translate(118.35 37.49999999999999)"/><use xlink:href="#p" transform="matrix(1,0,0,1,1073,838.1) translate(189.25 37.49999999999999)"/><use xlink:href="#e" transform="matrix(1,0,0,1,1073,838.1) translate(97.375 59.099999999999994)"/><use xlink:href="#O" transform="matrix(1,0,0,1,1073,838.1) translate(112.875 59.099999999999994)"/><use xlink:href="#p" transform="matrix(1,0,0,1,1073,838.1) translate(194.725 59.099999999999994)"/><use xlink:href="#e" transform="matrix(1,0,0,1,1073,838.1) translate(69.37499999999999 80.70000000000002)"/><use xlink:href="#P" transform="matrix(1,0,0,1,1073,838.1) translate(84.87499999999999 80.70000000000002)"/><use xlink:href="#p" transform="matrix(1,0,0,1,1073,838.1) translate(222.72500000000002 80.70000000000002)"/><use xlink:href="#e" transform="matrix(1,0,0,1,1073,838.1) translate(80.325 102.30000000000001)"/><use xlink:href="#Q" transform="matrix(1,0,0,1,1073,838.1) translate(95.825 102.30000000000001)"/><use xlink:href="#w" transform="matrix(1,0,0,1,1073,838.1) translate(236.72500000000002 102.30000000000001)"/><path d="M601 814h360v160H601z" stroke="#333" stroke-width="2" fill="#fff"/><path d="M601 851.6h360m-360 82.8h360" stroke="#333" stroke-width="2" fill="none"/><g><use xlink:href="#R" transform="matrix(1,0,0,1,609,822) translate(115.1 14.6)"/></g><g><use xlink:href="#e" transform="matrix(1,0,0,1,613,859.6) translate(75.80000000000001 15.500000000000002)"/><use xlink:href="#S" transform="matrix(1,0,0,1,613,859.6) translate(91.30000000000001 15.500000000000002)"/><use xlink:href="#T" transform="matrix(1,0,0,1,613,859.6) translate(222.25 15.500000000000002)"/><use xlink:href="#e" transform="matrix(1,0,0,1,613,859.6) translate(78.35 37.1)"/><use xlink:href="#U" transform="matrix(1,0,0,1,613,859.6) translate(93.85 37.1)"/><use xlink:href="#T" transform="matrix(1,0,0,1,613,859.6) translate(219.70000000000002 37.1)"/><use xlink:href="#e" transform="matrix(1,0,0,1,613,859.6) translate(100.25 58.7)"/><use xlink:href="#V" transform="matrix(1,0,0,1,613,859.6) translate(115.75 58.7)"/><use xlink:href="#W" transform="matrix(1,0,0,1,613,859.6) translate(179.75 58.7)"/></g><path d="M1121 1033.5h240v180h-240z" stroke="#333" stroke-width="2" fill="#fff"/><path d="M1121 1092.7h240" stroke="#333" stroke-width="2" fill="none"/><g><use xlink:href="#X" transform="matrix(1,0,0,1,1129,1041.5) translate(37.125 14.799999999999999)"/><use xlink:href="#Y" transform="matrix(1,0,0,1,1129,1041.5) translate(82.07499999999999 36.4)"/></g><g><use xlink:href="#Z" transform="matrix(1,0,0,1,1133,1100.7) translate(68.55 34.5)"/><use xlink:href="#aa" transform="matrix(1,0,0,1,1133,1100.7) translate(52.099999999999994 56.1)"/><use xlink:href="#ab" transform="matrix(1,0,0,1,1133,1100.7) translate(65.57499999999999 77.7)"/></g><path d="M962.5 894h97" stroke="#333" fill="none"/><path d="M962.5 894.48h-.5v-.96h.5zM1060 894.48h-.5v-.96h.5z" stroke="#333" stroke-width=".05" fill="#333"/><g><use xlink:href="#D" transform="matrix(1,0,0,1,1030.5874576271183,868.4000000000001) translate(0.005000000000000782 14.4)"/></g><g><use xlink:href="#D" transform="matrix(1,0,0,1,963.4823728813557,898.0000000000001) translate(0.005000000000000782 14.4)"/></g><path d="M502.5 894h97" stroke="#333" fill="none"/><path d="M502.5 894.48h-.5v-.96h.5zM600 894.48h-.5v-.96h.5z" stroke="#333" stroke-width=".05" fill="#333"/><g><use xlink:href="#D" transform="matrix(1,0,0,1,573.0400455876448,868.4000000000001) translate(0.005000000000000782 14.4)"/></g><path d="M141 315h360v182H141z" stroke="#333" stroke-width="2" fill="#fff"/><path d="M141 352.6h360M141 457h360" stroke="#333" stroke-width="2" fill="none"/><g><use xlink:href="#ac" transform="matrix(1,0,0,1,149,323) translate(105.025 14.6)"/></g><g><use xlink:href="#e" transform="matrix(1,0,0,1,153,360.6) translate(85.85 15.69999999999999)"/><use xlink:href="#ad" transform="matrix(1,0,0,1,153,360.6) translate(101.35 15.69999999999999)"/><use xlink:href="#g" transform="matrix(1,0,0,1,153,360.6) translate(231.20000000000002 15.69999999999999)"/><use xlink:href="#e" transform="matrix(1,0,0,1,153,360.6) translate(75.825 37.29999999999999)"/><use xlink:href="#ae" transform="matrix(1,0,0,1,153,360.6) translate(91.325 37.29999999999999)"/><use xlink:href="#g" transform="matrix(1,0,0,1,153,360.6) translate(241.22500000000002 37.29999999999999)"/><use xlink:href="#e" transform="matrix(1,0,0,1,153,360.6) translate(92.875 58.89999999999999)"/><use xlink:href="#af" transform="matrix(1,0,0,1,153,360.6) translate(108.375 58.89999999999999)"/><use xlink:href="#g" transform="matrix(1,0,0,1,153,360.6) translate(224.175 58.89999999999999)"/><use xlink:href="#e" transform="matrix(1,0,0,1,153,360.6) translate(68.825 80.5)"/><use xlink:href="#ag" transform="matrix(1,0,0,1,153,360.6) translate(84.325 80.5)"/><use xlink:href="#w" transform="matrix(1,0,0,1,153,360.6) translate(248.22500000000002 80.5)"/></g><path d="M321 528.63V498.5" stroke="#333" fill="none"/><path d="M321 558.3l-14.85-14.86L321 528.3l14.85 15.14z" stroke="#333" fill="#333"/><path d="M321.48 498.5h-.96v-.5h.96z" stroke="#333" stroke-width=".05" fill="#333"/><g><use xlink:href="#D" transform="matrix(1,0,0,1,270.5,506.43846153846135) translate(0 14.4)"/></g><path d="M532.38 406h67.12" stroke="#333" fill="none"/><path d="M502.7 406l14.86-14.85L532.7 406l-15.14 14.85z" stroke="#333" fill="#fff"/><path d="M600 406.48h-.5v-.96h.5z" stroke="#333" stroke-width=".05" fill="#333"/><path d="M601 80h360v117H601z" stroke="#333" stroke-width="2" fill="#fff"/><path d="M601 117.6h360m-360 39.6h360" stroke="#333" stroke-width="2" fill="none"/><g><use xlink:href="#ah" transform="matrix(1,0,0,1,609,88) translate(89.575 14.6)"/></g><g><use xlink:href="#e" transform="matrix(1,0,0,1,613,125.6) translate(72.35 15.6)"/><use xlink:href="#ai" transform="matrix(1,0,0,1,613,125.6) translate(87.85 15.6)"/><use xlink:href="#aj" transform="matrix(1,0,0,1,613,125.6) translate(225.70000000000002 15.6)"/></g><path d="M781 198.5V237" stroke="#333" fill="none"/><path d="M781.48 198.5h-.96v-.5h.96z" stroke="#333" stroke-width=".05" fill="#333"/><path d="M781 259.02l-12.73-21.52h25.46z" stroke="#333" fill="#fff"/><path d="M601 619h360v138H601z" stroke="#333" stroke-width="2" fill="#fff"/><path d="M601 656.6h360m-360 61.2h360" stroke="#333" stroke-width="2" fill="none"/><g><use xlink:href="#ak" transform="matrix(1,0,0,1,609,627) translate(104.1 14.6)"/></g><g><use xlink:href="#e" transform="matrix(1,0,0,1,613,664.6) translate(82.85 15.799999999999999)"/><use xlink:href="#al" transform="matrix(1,0,0,1,613,664.6) translate(98.35 15.799999999999999)"/><use xlink:href="#g" transform="matrix(1,0,0,1,613,664.6) translate(234.20000000000002 15.799999999999999)"/><use xlink:href="#e" transform="matrix(1,0,0,1,613,664.6) translate(111.8 37.4)"/><use xlink:href="#am" transform="matrix(1,0,0,1,613,664.6) translate(127.3 37.4)"/><use xlink:href="#w" transform="matrix(1,0,0,1,613,664.6) translate(205.25 37.4)"/></g><path d="M781 617.5v-65" stroke="#333" fill="none"/><path d="M781.48 618h-.96v-.5h.96zM781.48 552.5h-.96v-.5h.96z" stroke="#333" stroke-width=".05" fill="#333"/><path d="M781 812.5v-54" stroke="#333" fill="none"/><path d="M781.48 813h-.96v-.5h.96zM781.48 758.5h-.96v-.5h.96z" stroke="#333" stroke-width=".05" fill="#333"/><g><use xlink:href="#D" transform="matrix(1,0,0,1,745.9999999999999,761.5333333333334) translate(0.005000000000000782 14.4)"/></g><path d="M1241 791V590a12 12 0 0 0-12-12H884.1a12 12 0 0 1-12-12v-13.5" stroke="#333" fill="none"/><path d="M1241.47 791.5h-.94v-.5h.94zM872.56 552.5h-.95v-.5h.96z" stroke="#333" stroke-width=".05" fill="#333"/><g><use xlink:href="#D" transform="matrix(1,0,0,1,837.0875693779035,555.2812039002105) translate(0.005000000000000782 14.4)"/></g><g><use xlink:href="#D" transform="matrix(1,0,0,1,1249,765.2792125429112) translate(0.005000000000000782 14.4)"/></g><path d="M601 1086h360v117H601z" stroke="#333" stroke-width="2" fill="#fff"/><path d="M601 1123.6h360m-360 39.6h360" stroke="#333" stroke-width="2" fill="none"/><g><use xlink:href="#an" transform="matrix(1,0,0,1,609,1094) translate(93.57499999999999 14.6)"/></g><g><use xlink:href="#e" transform="matrix(1,0,0,1,613,1131.6) translate(94.85 15.6)"/><use xlink:href="#ao" transform="matrix(1,0,0,1,613,1131.6) translate(110.35 15.6)"/><use xlink:href="#aj" transform="matrix(1,0,0,1,613,1131.6) translate(203.2 15.6)"/></g><path d="M781 975.5v109" stroke="#333" fill="none"/><path d="M781.48 975.5h-.96v-.5h.96zM781.48 1085h-.96v-.5h.96z" stroke="#333" stroke-width=".05" fill="#333"/><path d="M781 1204.5v27.5a12 12 0 0 1-12 12H112a12 12 0 0 1-12-12V641a12 12 0 0 1 12-12h27.5" stroke="#333" fill="none"/><path d="M781.48 1204.5h-.96v-.5h.96zM140 629.48h-.5v-.96h.5z" stroke="#333" stroke-width=".05" fill="#333"/><defs><path d="M185-189c-5-48-123-54-124 2 14 75 158 14 163 119 3 78-121 87-175 55-17-10-28-26-33-46l33-7c5 56 141 63 141-1 0-78-155-14-162-118-5-82 145-84 179-34 5 7 8 16 11 25" id="ap"/><path d="M84 4C-5 8 30-112 23-190h32v120c0 31 7 50 39 49 72-2 45-101 50-169h31l1 190h-30c-1-10 1-25-2-33-11 22-28 36-60 37" id="aq"/><path d="M96-169c-40 0-48 33-48 73s9 75 48 75c24 0 41-14 43-38l32 2c-6 37-31 61-74 61-59 0-76-41-82-99-10-93 101-131 147-64 4 7 5 14 7 22l-32 3c-4-21-16-35-41-35" id="ar"/><path d="M114-163C36-179 61-72 57 0H25l-1-190h30c1 12-1 29 2 39 6-27 23-49 58-41v29" id="as"/><path d="M135-143c-3-34-86-38-87 0 15 53 115 12 119 90S17 21 10-45l28-5c4 36 97 45 98 0-10-56-113-15-118-90-4-57 82-63 122-42 12 7 21 19 24 35" id="at"/><path d="M141-36C126-15 110 5 73 4 37 3 15-17 15-53c-1-64 63-63 125-63 3-35-9-54-41-54-24 1-41 7-42 31l-33-3c5-37 33-52 76-52 45 0 72 20 72 64v82c-1 20 7 32 28 27v20c-31 9-61-2-59-35zM48-53c0 20 12 33 32 33 41-3 63-29 60-74-43 2-92-5-92 41" id="au"/><path d="M24 0v-261h32V0H24" id="av"/><g id="a"><use transform="matrix(0.05,0,0,0.05,0,0)" xlink:href="#ap"/><use transform="matrix(0.05,0,0,0.05,12,0)" xlink:href="#aq"/><use transform="matrix(0.05,0,0,0.05,22,0)" xlink:href="#ar"/><use transform="matrix(0.05,0,0,0.05,31,0)" xlink:href="#aq"/><use transform="matrix(0.05,0,0,0.05,41,0)" xlink:href="#as"/><use transform="matrix(0.05,0,0,0.05,46.95,0)" xlink:href="#at"/><use transform="matrix(0.05,0,0,0.05,55.95,0)" xlink:href="#au"/><use transform="matrix(0.05,0,0,0.05,65.95,0)" xlink:href="#av"/></g><path d="M118-107v75H92v-75H18v-26h74v-75h26v75h74v26h-74" id="aw"/><use transform="matrix(0.05,0,0,0.05,0,0)" xlink:href="#aw" id="b"/><path d="M117-194c89-4 53 116 60 194h-32v-121c0-31-8-49-39-48C34-167 62-67 57 0H25l-1-190h30c1 10-1 24 2 32 11-22 29-35 61-36" id="ax"/><path d="M100-194c62-1 85 37 85 99 1 63-27 99-86 99S16-35 15-95c0-66 28-99 85-99zM99-20c44 1 53-31 53-75 0-43-8-75-51-75s-53 32-53 75 10 74 51 75" id="ay"/><path d="M210-169c-67 3-38 105-44 169h-31v-121c0-29-5-50-35-48C34-165 62-65 56 0H25l-1-190h30c1 10-1 24 2 32 10-44 99-50 107 0 11-21 27-35 58-36 85-2 47 119 55 194h-31v-121c0-29-5-49-35-48" id="az"/><path d="M115-194c53 0 69 39 70 98 0 66-23 100-70 100C84 3 66-7 56-30L54 0H23l1-261h32v101c10-23 28-34 59-34zm-8 174c40 0 45-34 45-75 0-40-5-75-45-74-42 0-51 32-51 76 0 43 10 73 51 73" id="aA"/><path d="M100-194c63 0 86 42 84 106H49c0 40 14 67 53 68 26 1 43-12 49-29l28 8c-11 28-37 45-77 45C44 4 14-33 15-96c1-61 26-98 85-98zm52 81c6-60-76-77-97-28-3 7-6 17-6 28h103" id="aB"/><path d="M33-154v-36h34v36H33zM33 0v-36h34V0H33" id="aC"/><g id="c"><use transform="matrix(0.05,0,0,0.05,0,0)" xlink:href="#ax"/><use transform="matrix(0.05,0,0,0.05,10,0)" xlink:href="#ay"/><use transform="matrix(0.05,0,0,0.05,20,0)" xlink:href="#az"/><use transform="matrix(0.05,0,0,0.05,34.95,0)" xlink:href="#aA"/><use transform="matrix(0.05,0,0,0.05,44.95,0)" xlink:href="#as"/><use transform="matrix(0.05,0,0,0.05,50.900000000000006,0)" xlink:href="#aB"/><use transform="matrix(0.05,0,0,0.05,60.900000000000006,0)" xlink:href="#aC"/></g><path d="M59-47c-2 24 18 29 38 22v24C64 9 27 4 27-40v-127H5v-23h24l9-43h21v43h35v23H59v120" id="aD"/><path d="M24-231v-30h32v30H24zM24 0v-190h32V0H24" id="aE"/><path d="M177-190C167-65 218 103 67 71c-23-6-38-20-44-43l32-5c15 47 100 32 89-28v-30C133-14 115 1 83 1 29 1 15-40 15-95c0-56 16-97 71-98 29-1 48 16 59 35 1-10 0-23 2-32h30zM94-22c36 0 50-32 50-73 0-42-14-75-50-75-39 0-46 34-46 75s6 73 46 73" id="aF"/><g id="d"><use transform="matrix(0.05,0,0,0.05,0,0)" xlink:href="#ap"/><use transform="matrix(0.05,0,0,0.05,12,0)" xlink:href="#aD"/><use transform="matrix(0.05,0,0,0.05,17,0)" xlink:href="#as"/><use transform="matrix(0.05,0,0,0.05,22.95,0)" xlink:href="#aE"/><use transform="matrix(0.05,0,0,0.05,26.899999999999995,0)" xlink:href="#ax"/><use transform="matrix(0.05,0,0,0.05,36.9,0)" xlink:href="#aF"/></g><use transform="matrix(0.05,0,0,0.05,0,0)" xlink:href="#aw" id="e"/><g id="f"><use transform="matrix(0.05,0,0,0.05,0,0)" xlink:href="#aD"/><use transform="matrix(0.05,0,0,0.05,5,0)" xlink:href="#au"/><use transform="matrix(0.05,0,0,0.05,15,0)" xlink:href="#az"/><use transform="matrix(0.05,0,0,0.05,29.950000000000003,0)" xlink:href="#au"/><use transform="matrix(0.05,0,0,0.05,39.95,0)" xlink:href="#ax"/><use transform="matrix(0.05,0,0,0.05,49.95,0)" xlink:href="#aE"/><use transform="matrix(0.05,0,0,0.05,53.900000000000006,0)" xlink:href="#ay"/><use transform="matrix(0.05,0,0,0.05,63.900000000000006,0)" xlink:href="#aC"/></g><g id="g"><use transform="matrix(0.05,0,0,0.05,0,0)" xlink:href="#aE"/><use transform="matrix(0.05,0,0,0.05,3.95,0)" xlink:href="#ax"/><use transform="matrix(0.05,0,0,0.05,13.949999999999998,0)" xlink:href="#aD"/></g><path d="M101-234c-31-9-42 10-38 44h38v23H63V0H32v-167H5v-23h27c-7-52 17-82 69-68v24" id="aG"/><g id="h"><use transform="matrix(0.05,0,0,0.05,0,0)" xlink:href="#aD"/><use transform="matrix(0.05,0,0,0.05,5,0)" xlink:href="#aB"/><use transform="matrix(0.05,0,0,0.05,15,0)" xlink:href="#av"/><use transform="matrix(0.05,0,0,0.05,18.95,0)" xlink:href="#aB"/><use transform="matrix(0.05,0,0,0.05,28.950000000000003,0)" xlink:href="#aG"/><use transform="matrix(0.05,0,0,0.05,33.95,0)" xlink:href="#ay"/><use transform="matrix(0.05,0,0,0.05,43.95,0)" xlink:href="#ax"/><use transform="matrix(0.05,0,0,0.05,53.95,0)" xlink:href="#ay"/><use transform="matrix(0.05,0,0,0.05,63.95,0)" xlink:href="#aC"/></g><use transform="matrix(0.05,0,0,0.05,0,0)" xlink:href="#aw" id="i"/><path d="M85-194c31 0 48 13 60 33l-1-100h32l1 261h-30c-2-10 0-23-3-31C134-8 116 4 85 4 32 4 16-35 15-94c0-66 23-100 70-100zm9 24c-40 0-46 34-46 75 0 40 6 74 45 74 42 0 51-32 51-76 0-42-9-74-50-73" id="aH"/><g id="j"><use transform="matrix(0.05,0,0,0.05,0,0)" xlink:href="#aH"/><use transform="matrix(0.05,0,0,0.05,10,0)" xlink:href="#aE"/><use transform="matrix(0.05,0,0,0.05,13.949999999999998,0)" xlink:href="#as"/><use transform="matrix(0.05,0,0,0.05,19.9,0)" xlink:href="#aB"/><use transform="matrix(0.05,0,0,0.05,29.899999999999995,0)" xlink:href="#ar"/><use transform="matrix(0.05,0,0,0.05,38.9,0)" xlink:href="#ar"/><use transform="matrix(0.05,0,0,0.05,47.9,0)" xlink:href="#aE"/><use transform="matrix(0.05,0,0,0.05,51.85,0)" xlink:href="#ay"/><use transform="matrix(0.05,0,0,0.05,61.85,0)" xlink:href="#ax"/><use transform="matrix(0.05,0,0,0.05,71.85,0)" xlink:href="#aC"/></g><g id="k"><use transform="matrix(0.05,0,0,0.05,0,0)" xlink:href="#ap"/><use transform="matrix(0.05,0,0,0.05,12,0)" xlink:href="#aD"/><use transform="matrix(0.05,0,0,0.05,17,0)" xlink:href="#as"/><use transform="matrix(0.05,0,0,0.05,22.95,0)" xlink:href="#aE"/><use transform="matrix(0.05,0,0,0.05,26.899999999999995,0)" xlink:href="#ax"/><use transform="matrix(0.05,0,0,0.05,36.9,0)" xlink:href="#aF"/></g><path d="M30-248c87 1 191-15 191 75 0 78-77 80-158 76V0H30v-248zm33 125c57 0 124 11 124-50 0-59-68-47-124-48v98" id="aI"/><g id="l"><use transform="matrix(0.05,0,0,0.05,0,0)" xlink:href="#aI"/><use transform="matrix(0.05,0,0,0.05,12,0)" xlink:href="#as"/><use transform="matrix(0.05,0,0,0.05,17.95,0)" xlink:href="#ay"/><use transform="matrix(0.05,0,0,0.05,27.950000000000003,0)" xlink:href="#aH"/><use transform="matrix(0.05,0,0,0.05,37.95,0)" xlink:href="#aq"/><use transform="matrix(0.05,0,0,0.05,47.95,0)" xlink:href="#ar"/><use transform="matrix(0.05,0,0,0.05,56.95,0)" xlink:href="#aD"/><use transform="matrix(0.05,0,0,0.05,61.95,0)" xlink:href="#ay"/></g><path d="M160-131c35 5 61 23 61 61C221 17 115-2 30 0v-248c76 3 177-17 177 60 0 33-19 50-47 57zm-97-11c50-1 110 9 110-42 0-47-63-36-110-37v79zm0 115c55-2 124 14 124-45 0-56-70-42-124-44v89" id="aJ"/><g id="m"><use transform="matrix(0.05,0,0,0.05,0,0)" xlink:href="#ar"/><use transform="matrix(0.05,0,0,0.05,9,0)" xlink:href="#ay"/><use transform="matrix(0.05,0,0,0.05,19,0)" xlink:href="#at"/><use transform="matrix(0.05,0,0,0.05,28,0)" xlink:href="#aD"/><use transform="matrix(0.05,0,0,0.05,33,0)" xlink:href="#ay"/><use transform="matrix(0.05,0,0,0.05,43,0)" xlink:href="#aJ"/><use transform="matrix(0.05,0,0,0.05,55,0)" xlink:href="#ay"/><use transform="matrix(0.05,0,0,0.05,65,0)" xlink:href="#aH"/><use transform="matrix(0.05,0,0,0.05,75,0)" xlink:href="#aB"/><use transform="matrix(0.05,0,0,0.05,85,0)" xlink:href="#aF"/><use transform="matrix(0.05,0,0,0.05,95,0)" xlink:href="#au"/><use transform="matrix(0.05,0,0,0.05,105,0)" xlink:href="#aC"/></g><path d="M232-93c-1 65-40 97-104 97C67 4 28-28 28-90v-158h33c8 89-33 224 67 224 102 0 64-133 71-224h33v155" id="aK"/><g id="n"><use transform="matrix(0.05,0,0,0.05,0,0)" xlink:href="#ar"/><use transform="matrix(0.05,0,0,0.05,9,0)" xlink:href="#ay"/><use transform="matrix(0.05,0,0,0.05,19,0)" xlink:href="#at"/><use transform="matrix(0.05,0,0,0.05,28,0)" xlink:href="#aD"/><use transform="matrix(0.05,0,0,0.05,33,0)" xlink:href="#ay"/><use transform="matrix(0.05,0,0,0.05,43,0)" xlink:href="#aK"/><use transform="matrix(0.05,0,0,0.05,55.95,0)" xlink:href="#ax"/><use transform="matrix(0.05,0,0,0.05,65.95,0)" xlink:href="#aE"/><use transform="matrix(0.05,0,0,0.05,69.9,0)" xlink:href="#aH"/><use transform="matrix(0.05,0,0,0.05,79.9,0)" xlink:href="#au"/><use transform="matrix(0.05,0,0,0.05,89.9,0)" xlink:href="#aH"/><use transform="matrix(0.05,0,0,0.05,99.9,0)" xlink:href="#aC"/></g><path d="M115-194c55 1 70 41 70 98S169 2 115 4C84 4 66-9 55-30l1 105H24l-1-265h31l2 30c10-21 28-34 59-34zm-8 174c40 0 45-34 45-75s-6-73-45-74c-42 0-51 32-51 76 0 43 10 73 51 73" id="aL"/><g id="o"><use transform="matrix(0.05,0,0,0.05,0,0)" xlink:href="#aL"/><use transform="matrix(0.05,0,0,0.05,10,0)" xlink:href="#as"/><use transform="matrix(0.05,0,0,0.05,15.949999999999998,0)" xlink:href="#aB"/><use transform="matrix(0.05,0,0,0.05,25.950000000000003,0)" xlink:href="#at"/><use transform="matrix(0.05,0,0,0.05,34.95,0)" xlink:href="#aB"/><use transform="matrix(0.05,0,0,0.05,44.95,0)" xlink:href="#ax"/><use transform="matrix(0.05,0,0,0.05,54.95,0)" xlink:href="#aD"/><use transform="matrix(0.05,0,0,0.05,59.95,0)" xlink:href="#au"/><use transform="matrix(0.05,0,0,0.05,69.95,0)" xlink:href="#ar"/><use transform="matrix(0.05,0,0,0.05,78.95,0)" xlink:href="#aE"/><use transform="matrix(0.05,0,0,0.05,82.9,0)" xlink:href="#ay"/><use transform="matrix(0.05,0,0,0.05,92.9,0)" xlink:href="#ax"/><use transform="matrix(0.05,0,0,0.05,102.9,0)" xlink:href="#aC"/></g><g id="p"><use transform="matrix(0.05,0,0,0.05,0,0)" xlink:href="#at"/><use transform="matrix(0.05,0,0,0.05,9,0)" xlink:href="#aD"/><use transform="matrix(0.05,0,0,0.05,14,0)" xlink:href="#as"/><use transform="matrix(0.05,0,0,0.05,19.95,0)" xlink:href="#aE"/><use transform="matrix(0.05,0,0,0.05,23.9,0)" xlink:href="#ax"/><use transform="matrix(0.05,0,0,0.05,33.9,0)" xlink:href="#aF"/></g><g id="q"><use transform="matrix(0.05,0,0,0.05,0,0)" xlink:href="#ar"/><use transform="matrix(0.05,0,0,0.05,9,0)" xlink:href="#au"/><use transform="matrix(0.05,0,0,0.05,19,0)" xlink:href="#ax"/><use transform="matrix(0.05,0,0,0.05,29,0)" xlink:href="#aD"/><use transform="matrix(0.05,0,0,0.05,34,0)" xlink:href="#aE"/><use transform="matrix(0.05,0,0,0.05,37.95,0)" xlink:href="#aH"/><use transform="matrix(0.05,0,0,0.05,47.95,0)" xlink:href="#au"/><use transform="matrix(0.05,0,0,0.05,57.95,0)" xlink:href="#aH"/><use transform="matrix(0.05,0,0,0.05,67.95,0)" xlink:href="#aI"/><use transform="matrix(0.05,0,0,0.05,79.95,0)" xlink:href="#as"/><use transform="matrix(0.05,0,0,0.05,85.9,0)" xlink:href="#aB"/><use transform="matrix(0.05,0,0,0.05,95.9,0)" xlink:href="#at"/><use transform="matrix(0.05,0,0,0.05,104.9,0)" xlink:href="#aB"/><use transform="matrix(0.05,0,0,0.05,114.9,0)" xlink:href="#ax"/><use transform="matrix(0.05,0,0,0.05,124.9,0)" xlink:href="#aD"/><use transform="matrix(0.05,0,0,0.05,129.9,0)" xlink:href="#au"/><use transform="matrix(0.05,0,0,0.05,139.9,0)" xlink:href="#ar"/><use transform="matrix(0.05,0,0,0.05,148.9,0)" xlink:href="#aE"/><use transform="matrix(0.05,0,0,0.05,152.85,0)" xlink:href="#ay"/><use transform="matrix(0.05,0,0,0.05,162.85,0)" xlink:href="#ax"/><use transform="matrix(0.05,0,0,0.05,172.85,0)" xlink:href="#aC"/></g><path d="M240 0l2-218c-23 76-54 145-80 218h-23L58-218 59 0H30v-248h44l77 211c21-75 51-140 76-211h43V0h-30" id="aM"/><g id="r"><use transform="matrix(0.05,0,0,0.05,0,0)" xlink:href="#aq"/><use transform="matrix(0.05,0,0,0.05,10,0)" xlink:href="#ax"/><use transform="matrix(0.05,0,0,0.05,20,0)" xlink:href="#aE"/><use transform="matrix(0.05,0,0,0.05,23.95,0)" xlink:href="#aH"/><use transform="matrix(0.05,0,0,0.05,33.95,0)" xlink:href="#au"/><use transform="matrix(0.05,0,0,0.05,43.95,0)" xlink:href="#aH"/><use transform="matrix(0.05,0,0,0.05,53.95,0)" xlink:href="#aM"/><use transform="matrix(0.05,0,0,0.05,68.9,0)" xlink:href="#aB"/><use transform="matrix(0.05,0,0,0.05,78.9,0)" xlink:href="#aH"/><use transform="matrix(0.05,0,0,0.05,88.9,0)" xlink:href="#aE"/><use transform="matrix(0.05,0,0,0.05,92.85000000000001,0)" xlink:href="#aH"/><use transform="matrix(0.05,0,0,0.05,102.85000000000001,0)" xlink:href="#au"/><use transform="matrix(0.05,0,0,0.05,112.85000000000001,0)" xlink:href="#aC"/></g><g id="s"><use transform="matrix(0.05,0,0,0.05,0,0)" xlink:href="#at"/><use transform="matrix(0.05,0,0,0.05,9,0)" xlink:href="#aD"/><use transform="matrix(0.05,0,0,0.05,14,0)" xlink:href="#as"/><use transform="matrix(0.05,0,0,0.05,19.95,0)" xlink:href="#aE"/><use transform="matrix(0.05,0,0,0.05,23.9,0)" xlink:href="#ax"/><use transform="matrix(0.05,0,0,0.05,33.9,0)" xlink:href="#aF"/></g><g id="t"><use transform="matrix(0.05,0,0,0.05,0,0)" xlink:href="#ar"/><use transform="matrix(0.05,0,0,0.05,9,0)" xlink:href="#ay"/><use transform="matrix(0.05,0,0,0.05,19,0)" xlink:href="#aH"/><use transform="matrix(0.05,0,0,0.05,29,0)" xlink:href="#aE"/><use transform="matrix(0.05,0,0,0.05,32.95,0)" xlink:href="#aF"/><use transform="matrix(0.05,0,0,0.05,42.95,0)" xlink:href="#ay"/><use transform="matrix(0.05,0,0,0.05,52.95,0)" xlink:href="#aJ"/><use transform="matrix(0.05,0,0,0.05,64.95,0)" xlink:href="#au"/><use transform="matrix(0.05,0,0,0.05,74.95,0)" xlink:href="#as"/><use transform="matrix(0.05,0,0,0.05,80.9,0)" xlink:href="#as"/><use transform="matrix(0.05,0,0,0.05,86.85000000000001,0)" xlink:href="#au"/><use transform="matrix(0.05,0,0,0.05,96.85000000000001,0)" xlink:href="#at"/><use transform="matrix(0.05,0,0,0.05,105.85000000000001,0)" xlink:href="#aC"/></g><path d="M108 0H70L1-190h34L89-25l56-165h34" id="aN"/><path d="M30 0v-248h187v28H63v79h144v27H63v87h162V0H30" id="aO"/><path d="M145-31C134-9 116 4 85 4 32 4 16-35 15-94c0-59 17-99 70-100 32-1 48 14 60 33 0-11-1-24 2-32h30l-1 268h-32zM93-21c41 0 51-33 51-76s-8-73-50-73c-40 0-46 35-46 75s5 74 45 74" id="aP"/><g id="u"><use transform="matrix(0.05,0,0,0.05,0,0)" xlink:href="#aN"/><use transform="matrix(0.05,0,0,0.05,9,0)" xlink:href="#ay"/><use transform="matrix(0.05,0,0,0.05,19,0)" xlink:href="#av"/><use transform="matrix(0.05,0,0,0.05,22.95,0)" xlink:href="#aq"/><use transform="matrix(0.05,0,0,0.05,32.95,0)" xlink:href="#az"/><use transform="matrix(0.05,0,0,0.05,47.900000000000006,0)" xlink:href="#aB"/><use transform="matrix(0.05,0,0,0.05,57.900000000000006,0)" xlink:href="#ax"/><use transform="matrix(0.05,0,0,0.05,67.9,0)" xlink:href="#aO"/><use transform="matrix(0.05,0,0,0.05,79.9,0)" xlink:href="#az"/><use transform="matrix(0.05,0,0,0.05,94.85000000000001,0)" xlink:href="#aL"/><use transform="matrix(0.05,0,0,0.05,104.85000000000001,0)" xlink:href="#au"/><use transform="matrix(0.05,0,0,0.05,114.85000000000001,0)" xlink:href="#aP"/><use transform="matrix(0.05,0,0,0.05,124.85000000000001,0)" xlink:href="#aq"/><use transform="matrix(0.05,0,0,0.05,134.85000000000002,0)" xlink:href="#aB"/><use transform="matrix(0.05,0,0,0.05,144.85000000000002,0)" xlink:href="#aC"/></g><g id="v"><use transform="matrix(0.05,0,0,0.05,0,0)" xlink:href="#aL"/><use transform="matrix(0.05,0,0,0.05,10,0)" xlink:href="#aB"/><use transform="matrix(0.05,0,0,0.05,20,0)" xlink:href="#at"/><use transform="matrix(0.05,0,0,0.05,29,0)" xlink:href="#ay"/><use transform="matrix(0.05,0,0,0.05,39,0)" xlink:href="#aO"/><use transform="matrix(0.05,0,0,0.05,51,0)" xlink:href="#az"/><use transform="matrix(0.05,0,0,0.05,65.95,0)" xlink:href="#aL"/><use transform="matrix(0.05,0,0,0.05,75.95,0)" xlink:href="#au"/><use transform="matrix(0.05,0,0,0.05,85.95,0)" xlink:href="#aP"/><use transform="matrix(0.05,0,0,0.05,95.95,0)" xlink:href="#aq"/><use transform="matrix(0.05,0,0,0.05,105.95,0)" xlink:href="#aB"/><use transform="matrix(0.05,0,0,0.05,115.95,0)" xlink:href="#aC"/></g><g id="w"><use transform="matrix(0.05,0,0,0.05,0,0)" xlink:href="#aE"/><use transform="matrix(0.05,0,0,0.05,3.95,0)" xlink:href="#ax"/><use transform="matrix(0.05,0,0,0.05,13.949999999999998,0)" xlink:href="#aD"/></g><path d="M212-179c-10-28-35-45-73-45-59 0-87 40-87 99 0 60 29 101 89 101 43 0 62-24 78-52l27 14C228-24 195 4 139 4 59 4 22-46 18-125c-6-104 99-153 187-111 19 9 31 26 39 46" id="aQ"/><g id="x"><use transform="matrix(0.05,0,0,0.05,0,0)" xlink:href="#aQ"/><use transform="matrix(0.05,0,0,0.05,12.950000000000001,0)" xlink:href="#au"/><use transform="matrix(0.05,0,0,0.05,22.950000000000003,0)" xlink:href="#aD"/><use transform="matrix(0.05,0,0,0.05,27.950000000000003,0)" xlink:href="#aB"/><use transform="matrix(0.05,0,0,0.05,37.95,0)" xlink:href="#aF"/><use transform="matrix(0.05,0,0,0.05,47.95,0)" xlink:href="#ay"/><use transform="matrix(0.05,0,0,0.05,57.95,0)" xlink:href="#as"/><use transform="matrix(0.05,0,0,0.05,63.900000000000006,0)" xlink:href="#aE"/><use transform="matrix(0.05,0,0,0.05,67.85000000000001,0)" xlink:href="#au"/></g><g id="y"><use transform="matrix(0.05,0,0,0.05,0,0)" xlink:href="#ar"/><use transform="matrix(0.05,0,0,0.05,9,0)" xlink:href="#ay"/><use transform="matrix(0.05,0,0,0.05,19,0)" xlink:href="#aH"/><use transform="matrix(0.05,0,0,0.05,29,0)" xlink:href="#aE"/><use transform="matrix(0.05,0,0,0.05,32.95,0)" xlink:href="#aF"/><use transform="matrix(0.05,0,0,0.05,42.95,0)" xlink:href="#ay"/><use transform="matrix(0.05,0,0,0.05,52.95,0)" xlink:href="#aC"/></g><g id="z"><use transform="matrix(0.05,0,0,0.05,0,0)" xlink:href="#ax"/><use transform="matrix(0.05,0,0,0.05,10,0)" xlink:href="#ay"/><use transform="matrix(0.05,0,0,0.05,20,0)" xlink:href="#az"/><use transform="matrix(0.05,0,0,0.05,34.95,0)" xlink:href="#aA"/><use transform="matrix(0.05,0,0,0.05,44.95,0)" xlink:href="#as"/><use transform="matrix(0.05,0,0,0.05,50.900000000000006,0)" xlink:href="#aB"/><use transform="matrix(0.05,0,0,0.05,60.900000000000006,0)" xlink:href="#aC"/></g><g id="A"><use transform="matrix(0.05,0,0,0.05,0,0)" xlink:href="#aH"/><use transform="matrix(0.05,0,0,0.05,10,0)" xlink:href="#aB"/><use transform="matrix(0.05,0,0,0.05,20,0)" xlink:href="#at"/><use transform="matrix(0.05,0,0,0.05,29,0)" xlink:href="#ar"/><use transform="matrix(0.05,0,0,0.05,38,0)" xlink:href="#as"/><use transform="matrix(0.05,0,0,0.05,43.95,0)" xlink:href="#aE"/><use transform="matrix(0.05,0,0,0.05,47.900000000000006,0)" xlink:href="#aL"/><use transform="matrix(0.05,0,0,0.05,57.900000000000006,0)" xlink:href="#ar"/><use transform="matrix(0.05,0,0,0.05,66.9,0)" xlink:href="#aE"/><use transform="matrix(0.05,0,0,0.05,70.85000000000001,0)" xlink:href="#ay"/><use transform="matrix(0.05,0,0,0.05,80.85000000000001,0)" xlink:href="#ax"/><use transform="matrix(0.05,0,0,0.05,90.85000000000001,0)" xlink:href="#aC"/></g><path d="M205 0l-28-72H64L36 0H1l101-248h38L239 0h-34zm-38-99l-47-123c-12 45-31 82-46 123h93" id="aR"/><g id="B"><use transform="matrix(0.05,0,0,0.05,0,0)" xlink:href="#ar"/><use transform="matrix(0.05,0,0,0.05,9,0)" xlink:href="#au"/><use transform="matrix(0.05,0,0,0.05,19,0)" xlink:href="#as"/><use transform="matrix(0.05,0,0,0.05,24.95,0)" xlink:href="#au"/><use transform="matrix(0.05,0,0,0.05,34.95,0)" xlink:href="#ar"/><use transform="matrix(0.05,0,0,0.05,43.95,0)" xlink:href="#aD"/><use transform="matrix(0.05,0,0,0.05,48.95,0)" xlink:href="#aB"/><use transform="matrix(0.05,0,0,0.05,58.95,0)" xlink:href="#as"/><use transform="matrix(0.05,0,0,0.05,64.9,0)" xlink:href="#aE"/><use transform="matrix(0.05,0,0,0.05,68.85000000000001,0)" xlink:href="#at"/><use transform="matrix(0.05,0,0,0.05,77.85000000000001,0)" xlink:href="#aD"/><use transform="matrix(0.05,0,0,0.05,82.85000000000001,0)" xlink:href="#aE"/><use transform="matrix(0.05,0,0,0.05,86.80000000000001,0)" xlink:href="#ar"/><use transform="matrix(0.05,0,0,0.05,95.80000000000001,0)" xlink:href="#au"/><use transform="matrix(0.05,0,0,0.05,105.80000000000001,0)" xlink:href="#at"/><use transform="matrix(0.05,0,0,0.05,114.80000000000001,0)" xlink:href="#aR"/><use transform="matrix(0.05,0,0,0.05,126.80000000000001,0)" xlink:href="#av"/><use transform="matrix(0.05,0,0,0.05,130.75,0)" xlink:href="#az"/><use transform="matrix(0.05,0,0,0.05,145.7,0)" xlink:href="#au"/><use transform="matrix(0.05,0,0,0.05,155.7,0)" xlink:href="#ar"/><use transform="matrix(0.05,0,0,0.05,164.7,0)" xlink:href="#aB"/><use transform="matrix(0.05,0,0,0.05,174.7,0)" xlink:href="#ax"/><use transform="matrix(0.05,0,0,0.05,184.7,0)" xlink:href="#au"/><use transform="matrix(0.05,0,0,0.05,194.7,0)" xlink:href="#aC"/></g><g id="C"><use transform="matrix(0.05,0,0,0.05,0,0)" xlink:href="#ap"/><use transform="matrix(0.05,0,0,0.05,12,0)" xlink:href="#aD"/><use transform="matrix(0.05,0,0,0.05,17,0)" xlink:href="#as"/><use transform="matrix(0.05,0,0,0.05,22.95,0)" xlink:href="#aE"/><use transform="matrix(0.05,0,0,0.05,26.899999999999995,0)" xlink:href="#ax"/><use transform="matrix(0.05,0,0,0.05,36.9,0)" xlink:href="#aF"/></g><path d="M27 0v-27h64v-190l-56 39v-29l58-41h29v221h61V0H27" id="aS"/><path d="M33 0v-38h34V0H33" id="aT"/><path d="M80-196l47-18 7 23-49 13 32 44-20 13-27-46-27 45-21-12 33-44-49-13 8-23 47 19-2-53h23" id="aU"/><g id="D"><use transform="matrix(0.05,0,0,0.05,0,0)" xlink:href="#aS"/><use transform="matrix(0.05,0,0,0.05,10,0)" xlink:href="#aT"/><use transform="matrix(0.05,0,0,0.05,15,0)" xlink:href="#aT"/><use transform="matrix(0.05,0,0,0.05,20,0)" xlink:href="#aU"/></g><g id="E"><use transform="matrix(0.05,0,0,0.05,0,0)" xlink:href="#aQ"/><use transform="matrix(0.05,0,0,0.05,12.950000000000001,0)" xlink:href="#aE"/><use transform="matrix(0.05,0,0,0.05,16.900000000000002,0)" xlink:href="#aq"/><use transform="matrix(0.05,0,0,0.05,26.900000000000002,0)" xlink:href="#aH"/><use transform="matrix(0.05,0,0,0.05,36.900000000000006,0)" xlink:href="#au"/><use transform="matrix(0.05,0,0,0.05,46.900000000000006,0)" xlink:href="#aH"/></g><use transform="matrix(0.05,0,0,0.05,0,0)" xlink:href="#aw" id="F"/><g id="G"><use transform="matrix(0.05,0,0,0.05,0,0)" xlink:href="#ar"/><use transform="matrix(0.05,0,0,0.05,9,0)" xlink:href="#ay"/><use transform="matrix(0.05,0,0,0.05,19,0)" xlink:href="#aH"/><use transform="matrix(0.05,0,0,0.05,29,0)" xlink:href="#aE"/><use transform="matrix(0.05,0,0,0.05,32.95,0)" xlink:href="#aF"/><use transform="matrix(0.05,0,0,0.05,42.95,0)" xlink:href="#ay"/><use transform="matrix(0.05,0,0,0.05,52.95,0)" xlink:href="#aC"/></g><g id="H"><use transform="matrix(0.05,0,0,0.05,0,0)" xlink:href="#aE"/><use transform="matrix(0.05,0,0,0.05,3.95,0)" xlink:href="#ax"/><use transform="matrix(0.05,0,0,0.05,13.949999999999998,0)" xlink:href="#aD"/></g><g id="I"><use transform="matrix(0.05,0,0,0.05,0,0)" xlink:href="#ax"/><use transform="matrix(0.05,0,0,0.05,10,0)" xlink:href="#ay"/><use transform="matrix(0.05,0,0,0.05,20,0)" xlink:href="#az"/><use transform="matrix(0.05,0,0,0.05,34.95,0)" xlink:href="#aA"/><use transform="matrix(0.05,0,0,0.05,44.95,0)" xlink:href="#as"/><use transform="matrix(0.05,0,0,0.05,50.900000000000006,0)" xlink:href="#aB"/><use transform="matrix(0.05,0,0,0.05,60.900000000000006,0)" xlink:href="#aC"/></g><g id="J"><use transform="matrix(0.05,0,0,0.05,0,0)" xlink:href="#at"/><use transform="matrix(0.05,0,0,0.05,9,0)" xlink:href="#aD"/><use transform="matrix(0.05,0,0,0.05,14,0)" xlink:href="#as"/><use transform="matrix(0.05,0,0,0.05,19.95,0)" xlink:href="#aE"/><use transform="matrix(0.05,0,0,0.05,23.9,0)" xlink:href="#ax"/><use transform="matrix(0.05,0,0,0.05,33.9,0)" xlink:href="#aF"/></g><use transform="matrix(0.05,0,0,0.05,0,0)" xlink:href="#aU" id="K"/><g id="L"><use transform="matrix(0.05,0,0,0.05,0,0)" xlink:href="#aJ"/><use transform="matrix(0.05,0,0,0.05,12,0)" xlink:href="#ay"/><use transform="matrix(0.05,0,0,0.05,22,0)" xlink:href="#aH"/><use transform="matrix(0.05,0,0,0.05,32,0)" xlink:href="#aB"/><use transform="matrix(0.05,0,0,0.05,42,0)" xlink:href="#aF"/><use transform="matrix(0.05,0,0,0.05,52,0)" xlink:href="#au"/></g><g id="M"><use transform="matrix(0.05,0,0,0.05,0,0)" xlink:href="#aI"/><use transform="matrix(0.05,0,0,0.05,12,0)" xlink:href="#as"/><use transform="matrix(0.05,0,0,0.05,17.95,0)" xlink:href="#ay"/><use transform="matrix(0.05,0,0,0.05,27.950000000000003,0)" xlink:href="#aN"/><use transform="matrix(0.05,0,0,0.05,36.95,0)" xlink:href="#aB"/><use transform="matrix(0.05,0,0,0.05,46.95,0)" xlink:href="#aB"/><use transform="matrix(0.05,0,0,0.05,56.95,0)" xlink:href="#aH"/><use transform="matrix(0.05,0,0,0.05,66.95,0)" xlink:href="#ay"/><use transform="matrix(0.05,0,0,0.05,76.95,0)" xlink:href="#as"/></g><g id="N"><use transform="matrix(0.05,0,0,0.05,0,0)" xlink:href="#ax"/><use transform="matrix(0.05,0,0,0.05,10,0)" xlink:href="#aE"/><use transform="matrix(0.05,0,0,0.05,13.949999999999998,0)" xlink:href="#aD"/><use transform="matrix(0.05,0,0,0.05,18.95,0)" xlink:href="#aC"/></g><g id="O"><use transform="matrix(0.05,0,0,0.05,0,0)" xlink:href="#aH"/><use transform="matrix(0.05,0,0,0.05,10,0)" xlink:href="#aE"/><use transform="matrix(0.05,0,0,0.05,13.949999999999998,0)" xlink:href="#as"/><use transform="matrix(0.05,0,0,0.05,19.9,0)" xlink:href="#aB"/><use transform="matrix(0.05,0,0,0.05,29.899999999999995,0)" xlink:href="#ar"/><use transform="matrix(0.05,0,0,0.05,38.9,0)" xlink:href="#ar"/><use transform="matrix(0.05,0,0,0.05,47.9,0)" xlink:href="#aE"/><use transform="matrix(0.05,0,0,0.05,51.85,0)" xlink:href="#ay"/><use transform="matrix(0.05,0,0,0.05,61.85,0)" xlink:href="#ax"/><use transform="matrix(0.05,0,0,0.05,71.85,0)" xlink:href="#aC"/></g><g id="P"><use transform="matrix(0.05,0,0,0.05,0,0)" xlink:href="#ax"/><use transform="matrix(0.05,0,0,0.05,10,0)" xlink:href="#ay"/><use transform="matrix(0.05,0,0,0.05,20,0)" xlink:href="#az"/><use transform="matrix(0.05,0,0,0.05,34.95,0)" xlink:href="#aA"/><use transform="matrix(0.05,0,0,0.05,44.95,0)" xlink:href="#as"/><use transform="matrix(0.05,0,0,0.05,50.900000000000006,0)" xlink:href="#aB"/><use transform="matrix(0.05,0,0,0.05,60.900000000000006,0)" xlink:href="#aI"/><use transform="matrix(0.05,0,0,0.05,72.9,0)" xlink:href="#aB"/><use transform="matrix(0.05,0,0,0.05,82.9,0)" xlink:href="#as"/><use transform="matrix(0.05,0,0,0.05,88.85000000000001,0)" xlink:href="#at"/><use transform="matrix(0.05,0,0,0.05,97.85000000000001,0)" xlink:href="#ay"/><use transform="matrix(0.05,0,0,0.05,107.85000000000001,0)" xlink:href="#ax"/><use transform="matrix(0.05,0,0,0.05,117.85000000000001,0)" xlink:href="#au"/><use transform="matrix(0.05,0,0,0.05,127.85000000000001,0)" xlink:href="#aC"/></g><g id="Q"><use transform="matrix(0.05,0,0,0.05,0,0)" xlink:href="#aD"/><use transform="matrix(0.05,0,0,0.05,5,0)" xlink:href="#aB"/><use transform="matrix(0.05,0,0,0.05,15,0)" xlink:href="#av"/><use transform="matrix(0.05,0,0,0.05,18.95,0)" xlink:href="#aB"/><use transform="matrix(0.05,0,0,0.05,28.950000000000003,0)" xlink:href="#aG"/><use transform="matrix(0.05,0,0,0.05,33.95,0)" xlink:href="#ay"/><use transform="matrix(0.05,0,0,0.05,43.95,0)" xlink:href="#ax"/><use transform="matrix(0.05,0,0,0.05,53.95,0)" xlink:href="#ay"/><use transform="matrix(0.05,0,0,0.05,63.95,0)" xlink:href="#aI"/><use transform="matrix(0.05,0,0,0.05,75.95,0)" xlink:href="#aB"/><use transform="matrix(0.05,0,0,0.05,85.95,0)" xlink:href="#as"/><use transform="matrix(0.05,0,0,0.05,91.9,0)" xlink:href="#at"/><use transform="matrix(0.05,0,0,0.05,100.9,0)" xlink:href="#ay"/><use transform="matrix(0.05,0,0,0.05,110.9,0)" xlink:href="#ax"/><use transform="matrix(0.05,0,0,0.05,120.9,0)" xlink:href="#au"/><use transform="matrix(0.05,0,0,0.05,130.9,0)" xlink:href="#aC"/></g><path d="M140-251c81 0 123 46 123 126C263-46 219 4 140 4 59 4 17-45 17-125s42-126 123-126zm0 227c63 0 89-41 89-101s-29-99-89-99c-61 0-89 39-89 99S79-25 140-24" id="aV"/><g id="R"><use transform="matrix(0.05,0,0,0.05,0,0)" xlink:href="#aV"/><use transform="matrix(0.05,0,0,0.05,14,0)" xlink:href="#as"/><use transform="matrix(0.05,0,0,0.05,19.95,0)" xlink:href="#aH"/><use transform="matrix(0.05,0,0,0.05,29.950000000000003,0)" xlink:href="#aB"/><use transform="matrix(0.05,0,0,0.05,39.95,0)" xlink:href="#ax"/><use transform="matrix(0.05,0,0,0.05,49.95,0)" xlink:href="#aQ"/><use transform="matrix(0.05,0,0,0.05,62.900000000000006,0)" xlink:href="#ay"/><use transform="matrix(0.05,0,0,0.05,72.9,0)" xlink:href="#az"/><use transform="matrix(0.05,0,0,0.05,87.85000000000001,0)" xlink:href="#aL"/><use transform="matrix(0.05,0,0,0.05,97.85000000000001,0)" xlink:href="#as"/><use transform="matrix(0.05,0,0,0.05,103.80000000000001,0)" xlink:href="#au"/></g><path d="M106-169C34-169 62-67 57 0H25v-261h32l-1 103c12-21 28-36 61-36 89 0 53 116 60 194h-32v-121c2-32-8-49-39-48" id="aW"/><g id="S"><use transform="matrix(0.05,0,0,0.05,0,0)" xlink:href="#aG"/><use transform="matrix(0.05,0,0,0.05,5,0)" xlink:href="#aB"/><use transform="matrix(0.05,0,0,0.05,15,0)" xlink:href="#ar"/><use transform="matrix(0.05,0,0,0.05,24,0)" xlink:href="#aW"/><use transform="matrix(0.05,0,0,0.05,34,0)" xlink:href="#au"/><use transform="matrix(0.05,0,0,0.05,44,0)" xlink:href="#aO"/><use transform="matrix(0.05,0,0,0.05,56,0)" xlink:href="#at"/><use transform="matrix(0.05,0,0,0.05,65,0)" xlink:href="#aL"/><use transform="matrix(0.05,0,0,0.05,75,0)" xlink:href="#aB"/><use transform="matrix(0.05,0,0,0.05,85,0)" xlink:href="#as"/><use transform="matrix(0.05,0,0,0.05,90.95,0)" xlink:href="#au"/><use transform="matrix(0.05,0,0,0.05,100.95,0)" xlink:href="#aH"/><use transform="matrix(0.05,0,0,0.05,110.95,0)" xlink:href="#au"/><use transform="matrix(0.05,0,0,0.05,120.95,0)" xlink:href="#aC"/></g><path d="M30-248c118-7 216 8 213 122C240-48 200 0 122 0H30v-248zM63-27c89 8 146-16 146-99s-60-101-146-95v194" id="aX"/><g id="T"><use transform="matrix(0.05,0,0,0.05,0,0)" xlink:href="#aX"/><use transform="matrix(0.05,0,0,0.05,12.950000000000001,0)" xlink:href="#au"/><use transform="matrix(0.05,0,0,0.05,22.950000000000003,0)" xlink:href="#aD"/><use transform="matrix(0.05,0,0,0.05,27.950000000000003,0)" xlink:href="#aB"/></g><g id="U"><use transform="matrix(0.05,0,0,0.05,0,0)" xlink:href="#aG"/><use transform="matrix(0.05,0,0,0.05,5,0)" xlink:href="#aB"/><use transform="matrix(0.05,0,0,0.05,15,0)" xlink:href="#ar"/><use transform="matrix(0.05,0,0,0.05,24,0)" xlink:href="#aW"/><use transform="matrix(0.05,0,0,0.05,34,0)" xlink:href="#au"/><use transform="matrix(0.05,0,0,0.05,44,0)" xlink:href="#aQ"/><use transform="matrix(0.05,0,0,0.05,56.95,0)" xlink:href="#as"/><use transform="matrix(0.05,0,0,0.05,62.900000000000006,0)" xlink:href="#aB"/><use transform="matrix(0.05,0,0,0.05,72.9,0)" xlink:href="#au"/><use transform="matrix(0.05,0,0,0.05,82.9,0)" xlink:href="#ar"/><use transform="matrix(0.05,0,0,0.05,91.9,0)" xlink:href="#aE"/><use transform="matrix(0.05,0,0,0.05,95.85000000000001,0)" xlink:href="#ay"/><use transform="matrix(0.05,0,0,0.05,105.85000000000001,0)" xlink:href="#ax"/><use transform="matrix(0.05,0,0,0.05,115.85000000000001,0)" xlink:href="#aC"/></g><g id="V"><use transform="matrix(0.05,0,0,0.05,0,0)" xlink:href="#aB"/><use transform="matrix(0.05,0,0,0.05,10,0)" xlink:href="#at"/><use transform="matrix(0.05,0,0,0.05,19,0)" xlink:href="#aD"/><use transform="matrix(0.05,0,0,0.05,24,0)" xlink:href="#au"/><use transform="matrix(0.05,0,0,0.05,34,0)" xlink:href="#aH"/><use transform="matrix(0.05,0,0,0.05,44,0)" xlink:href="#ay"/><use transform="matrix(0.05,0,0,0.05,54,0)" xlink:href="#aC"/></g><g id="W"><use transform="matrix(0.05,0,0,0.05,0,0)" xlink:href="#aO"/><use transform="matrix(0.05,0,0,0.05,12,0)" xlink:href="#at"/><use transform="matrix(0.05,0,0,0.05,21,0)" xlink:href="#aD"/><use transform="matrix(0.05,0,0,0.05,26,0)" xlink:href="#au"/><use transform="matrix(0.05,0,0,0.05,36,0)" xlink:href="#aH"/><use transform="matrix(0.05,0,0,0.05,46,0)" xlink:href="#ay"/></g><path d="M15-91v-56l181-69v40L49-119l147 57v40" id="aY"/><path d="M185-48c-13 30-37 53-82 52C43 2 14-33 14-96s30-98 90-98c62 0 83 45 84 108H66c0 31 8 55 39 56 18 0 30-7 34-22zm-45-69c5-46-57-63-70-21-2 6-4 13-4 21h74" id="aZ"/><path d="M135-194c87-1 58 113 63 194h-50c-7-57 23-157-34-157-59 0-34 97-39 157H25l-1-190h47c2 12-1 28 3 38 12-26 28-41 61-42" id="ba"/><path d="M85 4C-2 5 27-109 22-190h50c7 57-23 150 33 157 60-5 35-97 40-157h50l1 190h-47c-2-12 1-28-3-38-12 25-28 42-61 42" id="bb"/><path d="M220-157c-53 9-28 100-34 157h-49v-107c1-27-5-49-29-50C55-147 81-57 75 0H25l-1-190h47c2 12-1 28 3 38 10-53 101-56 108 0 13-22 24-43 59-42 82 1 51 116 57 194h-49v-107c-1-25-5-48-29-50" id="bc"/><path d="M135-150c-39-12-60 13-60 57V0H25l-1-190h47c2 13-1 29 3 40 6-28 27-53 61-41v41" id="bd"/><path d="M133-34C117-15 103 5 69 4 32 3 11-16 11-54c-1-60 55-63 116-61 1-26-3-47-28-47-18 1-26 9-28 27l-52-2c7-38 36-58 82-57s74 22 75 68l1 82c-1 14 12 18 25 15v27c-30 8-71 5-69-32zm-48 3c29 0 43-24 42-57-32 0-66-3-65 30 0 17 8 27 23 27" id="be"/><path d="M115-3C79 11 28 4 28-45v-112H4v-33h27l15-45h31v45h36v33H77v99c-1 23 16 31 38 25v30" id="bf"/><path d="M25-224v-37h50v37H25zM25 0v-190h50V0H25" id="bg"/><path d="M110-194c64 0 96 36 96 99 0 64-35 99-97 99-61 0-95-36-95-99 0-62 34-99 96-99zm-1 164c35 0 45-28 45-65 0-40-10-65-43-65-34 0-45 26-45 65 0 36 10 65 43 65" id="bh"/><path d="M15-22v-40l146-57-146-57v-40l181 69v56" id="bi"/><g id="X"><use transform="matrix(0.05,0,0,0.05,0,0)" xlink:href="#aY"/><use transform="matrix(0.05,0,0,0.05,10.5,0)" xlink:href="#aY"/><use transform="matrix(0.05,0,0,0.05,21,0)" xlink:href="#aZ"/><use transform="matrix(0.05,0,0,0.05,31,0)" xlink:href="#ba"/><use transform="matrix(0.05,0,0,0.05,41.95,0)" xlink:href="#bb"/><use transform="matrix(0.05,0,0,0.05,52.900000000000006,0)" xlink:href="#bc"/><use transform="matrix(0.05,0,0,0.05,68.9,0)" xlink:href="#aZ"/><use transform="matrix(0.05,0,0,0.05,78.9,0)" xlink:href="#bd"/><use transform="matrix(0.05,0,0,0.05,85.9,0)" xlink:href="#be"/><use transform="matrix(0.05,0,0,0.05,95.9,0)" xlink:href="#bf"/><use transform="matrix(0.05,0,0,0.05,101.85000000000001,0)" xlink:href="#bg"/><use transform="matrix(0.05,0,0,0.05,106.85000000000001,0)" xlink:href="#bh"/><use transform="matrix(0.05,0,0,0.05,117.80000000000001,0)" xlink:href="#ba"/><use transform="matrix(0.05,0,0,0.05,128.75,0)" xlink:href="#bi"/><use transform="matrix(0.05,0,0,0.05,139.25,0)" xlink:href="#bi"/></g><path d="M24 0v-248h195v40H76v63h132v40H76v65h150V0H24" id="bj"/><path d="M137-138c1-29-70-34-71-4 15 46 118 7 119 86 1 83-164 76-172 9l43-7c4 19 20 25 44 25 33 8 57-30 24-41C81-84 22-81 20-136c-2-80 154-74 161-7" id="bk"/><path d="M88-194c31-1 46 15 58 34l-1-101h50l1 261h-48c-2-10 0-23-3-31C134-8 116 4 84 4 32 4 16-41 15-95c0-56 19-97 73-99zm17 164c33 0 40-30 41-66 1-37-9-64-41-64s-38 30-39 65c0 43 13 65 39 65" id="bl"/><g id="Y"><use transform="matrix(0.05,0,0,0.05,0,0)" xlink:href="#bj"/><use transform="matrix(0.05,0,0,0.05,12,0)" xlink:href="#bk"/><use transform="matrix(0.05,0,0,0.05,22,0)" xlink:href="#bf"/><use transform="matrix(0.05,0,0,0.05,27.950000000000003,0)" xlink:href="#be"/><use transform="matrix(0.05,0,0,0.05,37.95,0)" xlink:href="#bl"/><use transform="matrix(0.05,0,0,0.05,48.900000000000006,0)" xlink:href="#bh"/></g><path d="M137 0h-34L2-248h35l83 218 83-218h36" id="bm"/><path d="M33 0v-248h34V0H33" id="bn"/><path d="M143 4C61 4 22-44 18-125c-5-107 100-154 193-111 17 8 29 25 37 43l-32 9c-13-25-37-40-76-40-61 0-88 39-88 99 0 61 29 100 91 101 35 0 62-11 79-27v-45h-74v-28h105v86C228-13 192 4 143 4" id="bo"/><path d="M190 0L58-211 59 0H30v-248h39L202-35l-2-213h31V0h-41" id="bp"/><path d="M127-220V0H93v-220H8v-28h204v28h-85" id="bq"/><g id="Z"><use transform="matrix(0.05,0,0,0.05,0,0)" xlink:href="#bm"/><use transform="matrix(0.05,0,0,0.05,12,0)" xlink:href="#bn"/><use transform="matrix(0.05,0,0,0.05,17,0)" xlink:href="#bo"/><use transform="matrix(0.05,0,0,0.05,31,0)" xlink:href="#aO"/><use transform="matrix(0.05,0,0,0.05,43,0)" xlink:href="#bp"/><use transform="matrix(0.05,0,0,0.05,55.95,0)" xlink:href="#bq"/><use transform="matrix(0.05,0,0,0.05,66.9,0)" xlink:href="#aO"/></g><path d="M233-177c-1 41-23 64-60 70L243 0h-38l-65-103H63V0H30v-248c88 3 205-21 203 71zM63-129c60-2 137 13 137-47 0-61-80-42-137-45v92" id="br"/><g id="aa"><use transform="matrix(0.05,0,0,0.05,0,0)" xlink:href="#aO"/><use transform="matrix(0.05,0,0,0.05,12,0)" xlink:href="#bp"/><use transform="matrix(0.05,0,0,0.05,24.950000000000003,0)" xlink:href="#bq"/><use transform="matrix(0.05,0,0,0.05,35.900000000000006,0)" xlink:href="#br"/><use transform="matrix(0.05,0,0,0.05,48.85000000000001,0)" xlink:href="#aO"/><use transform="matrix(0.05,0,0,0.05,60.85,0)" xlink:href="#bo"/><use transform="matrix(0.05,0,0,0.05,74.85000000000001,0)" xlink:href="#aR"/><use transform="matrix(0.05,0,0,0.05,86.85000000000001,0)" xlink:href="#aX"/><use transform="matrix(0.05,0,0,0.05,99.80000000000001,0)" xlink:href="#aR"/></g><path d="M30 0v-248h33v221h125V0H30" id="bs"/><g id="ab"><use transform="matrix(0.05,0,0,0.05,0,0)" xlink:href="#aR"/><use transform="matrix(0.05,0,0,0.05,12,0)" xlink:href="#bp"/><use transform="matrix(0.05,0,0,0.05,24.950000000000003,0)" xlink:href="#aK"/><use transform="matrix(0.05,0,0,0.05,37.900000000000006,0)" xlink:href="#bs"/><use transform="matrix(0.05,0,0,0.05,47.900000000000006,0)" xlink:href="#aR"/><use transform="matrix(0.05,0,0,0.05,59.900000000000006,0)" xlink:href="#aX"/><use transform="matrix(0.05,0,0,0.05,72.85000000000001,0)" xlink:href="#aR"/></g><g id="ac"><use transform="matrix(0.05,0,0,0.05,0,0)" xlink:href="#aI"/><use transform="matrix(0.05,0,0,0.05,12,0)" xlink:href="#as"/><use transform="matrix(0.05,0,0,0.05,17.95,0)" xlink:href="#ay"/><use transform="matrix(0.05,0,0,0.05,27.950000000000003,0)" xlink:href="#aH"/><use transform="matrix(0.05,0,0,0.05,37.95,0)" xlink:href="#aq"/><use transform="matrix(0.05,0,0,0.05,47.95,0)" xlink:href="#ar"/><use transform="matrix(0.05,0,0,0.05,56.95,0)" xlink:href="#aD"/><use transform="matrix(0.05,0,0,0.05,61.95,0)" xlink:href="#ay"/><use transform="matrix(0.05,0,0,0.05,71.95,0)" xlink:href="#aJ"/><use transform="matrix(0.05,0,0,0.05,83.95,0)" xlink:href="#ay"/><use transform="matrix(0.05,0,0,0.05,93.95,0)" xlink:href="#aH"/><use transform="matrix(0.05,0,0,0.05,103.95,0)" xlink:href="#aB"/><use transform="matrix(0.05,0,0,0.05,113.95,0)" xlink:href="#aF"/><use transform="matrix(0.05,0,0,0.05,123.95,0)" xlink:href="#au"/></g><g id="ad"><use transform="matrix(0.05,0,0,0.05,0,0)" xlink:href="#ar"/><use transform="matrix(0.05,0,0,0.05,9,0)" xlink:href="#ay"/><use transform="matrix(0.05,0,0,0.05,19,0)" xlink:href="#at"/><use transform="matrix(0.05,0,0,0.05,28,0)" xlink:href="#aD"/><use transform="matrix(0.05,0,0,0.05,33,0)" xlink:href="#ay"/><use transform="matrix(0.05,0,0,0.05,43,0)" xlink:href="#aI"/><use transform="matrix(0.05,0,0,0.05,55,0)" xlink:href="#as"/><use transform="matrix(0.05,0,0,0.05,60.95,0)" xlink:href="#ay"/><use transform="matrix(0.05,0,0,0.05,70.95,0)" xlink:href="#az"/><use transform="matrix(0.05,0,0,0.05,85.9,0)" xlink:href="#aB"/><use transform="matrix(0.05,0,0,0.05,95.9,0)" xlink:href="#aH"/><use transform="matrix(0.05,0,0,0.05,105.9,0)" xlink:href="#aE"/><use transform="matrix(0.05,0,0,0.05,109.85000000000001,0)" xlink:href="#ay"/><use transform="matrix(0.05,0,0,0.05,119.85000000000001,0)" xlink:href="#aC"/></g><g id="ae"><use transform="matrix(0.05,0,0,0.05,0,0)" xlink:href="#ar"/><use transform="matrix(0.05,0,0,0.05,9,0)" xlink:href="#au"/><use transform="matrix(0.05,0,0,0.05,19,0)" xlink:href="#ax"/><use transform="matrix(0.05,0,0,0.05,29,0)" xlink:href="#aD"/><use transform="matrix(0.05,0,0,0.05,34,0)" xlink:href="#aE"/><use transform="matrix(0.05,0,0,0.05,37.95,0)" xlink:href="#aH"/><use transform="matrix(0.05,0,0,0.05,47.95,0)" xlink:href="#au"/><use transform="matrix(0.05,0,0,0.05,57.95,0)" xlink:href="#aH"/><use transform="matrix(0.05,0,0,0.05,67.95,0)" xlink:href="#aI"/><use transform="matrix(0.05,0,0,0.05,79.95,0)" xlink:href="#as"/><use transform="matrix(0.05,0,0,0.05,85.9,0)" xlink:href="#ay"/><use transform="matrix(0.05,0,0,0.05,95.9,0)" xlink:href="#aH"/><use transform="matrix(0.05,0,0,0.05,105.9,0)" xlink:href="#aq"/><use transform="matrix(0.05,0,0,0.05,115.9,0)" xlink:href="#ar"/><use transform="matrix(0.05,0,0,0.05,124.9,0)" xlink:href="#aD"/><use transform="matrix(0.05,0,0,0.05,129.9,0)" xlink:href="#ay"/><use transform="matrix(0.05,0,0,0.05,139.9,0)" xlink:href="#aC"/></g><g id="af"><use transform="matrix(0.05,0,0,0.05,0,0)" xlink:href="#ax"/><use transform="matrix(0.05,0,0,0.05,10,0)" xlink:href="#aE"/><use transform="matrix(0.05,0,0,0.05,13.949999999999998,0)" xlink:href="#aN"/><use transform="matrix(0.05,0,0,0.05,22.95,0)" xlink:href="#aB"/><use transform="matrix(0.05,0,0,0.05,32.95,0)" xlink:href="#av"/><use transform="matrix(0.05,0,0,0.05,36.900000000000006,0)" xlink:href="#br"/><use transform="matrix(0.05,0,0,0.05,49.85000000000001,0)" xlink:href="#aB"/><use transform="matrix(0.05,0,0,0.05,59.85,0)" xlink:href="#ay"/><use transform="matrix(0.05,0,0,0.05,69.85000000000001,0)" xlink:href="#as"/><use transform="matrix(0.05,0,0,0.05,75.80000000000001,0)" xlink:href="#aH"/><use transform="matrix(0.05,0,0,0.05,85.80000000000001,0)" xlink:href="#aB"/><use transform="matrix(0.05,0,0,0.05,95.80000000000001,0)" xlink:href="#ax"/><use transform="matrix(0.05,0,0,0.05,105.80000000000001,0)" xlink:href="#aC"/></g><g id="ag"><use transform="matrix(0.05,0,0,0.05,0,0)" xlink:href="#ar"/><use transform="matrix(0.05,0,0,0.05,9,0)" xlink:href="#au"/><use transform="matrix(0.05,0,0,0.05,19,0)" xlink:href="#aL"/><use transform="matrix(0.05,0,0,0.05,29,0)" xlink:href="#au"/><use transform="matrix(0.05,0,0,0.05,39,0)" xlink:href="#ar"/><use transform="matrix(0.05,0,0,0.05,48,0)" xlink:href="#aE"/><use transform="matrix(0.05,0,0,0.05,51.95,0)" xlink:href="#aH"/><use transform="matrix(0.05,0,0,0.05,61.95,0)" xlink:href="#au"/><use transform="matrix(0.05,0,0,0.05,71.95,0)" xlink:href="#aH"/><use transform="matrix(0.05,0,0,0.05,81.95,0)" xlink:href="#aI"/><use transform="matrix(0.05,0,0,0.05,93.95,0)" xlink:href="#as"/><use transform="matrix(0.05,0,0,0.05,99.9,0)" xlink:href="#ay"/><use transform="matrix(0.05,0,0,0.05,109.9,0)" xlink:href="#aH"/><use transform="matrix(0.05,0,0,0.05,119.9,0)" xlink:href="#aq"/><use transform="matrix(0.05,0,0,0.05,129.9,0)" xlink:href="#ar"/><use transform="matrix(0.05,0,0,0.05,138.9,0)" xlink:href="#aD"/><use transform="matrix(0.05,0,0,0.05,143.9,0)" xlink:href="#ay"/><use transform="matrix(0.05,0,0,0.05,153.9,0)" xlink:href="#aC"/></g><g id="ah"><use transform="matrix(0.05,0,0,0.05,0,0)" xlink:href="#aI"/><use transform="matrix(0.05,0,0,0.05,12,0)" xlink:href="#as"/><use transform="matrix(0.05,0,0,0.05,17.95,0)" xlink:href="#ay"/><use transform="matrix(0.05,0,0,0.05,27.950000000000003,0)" xlink:href="#aH"/><use transform="matrix(0.05,0,0,0.05,37.95,0)" xlink:href="#aq"/><use transform="matrix(0.05,0,0,0.05,47.95,0)" xlink:href="#ar"/><use transform="matrix(0.05,0,0,0.05,56.95,0)" xlink:href="#aD"/><use transform="matrix(0.05,0,0,0.05,61.95,0)" xlink:href="#ay"/><use transform="matrix(0.05,0,0,0.05,71.95,0)" xlink:href="#aI"/><use transform="matrix(0.05,0,0,0.05,83.95,0)" xlink:href="#aB"/><use transform="matrix(0.05,0,0,0.05,93.95,0)" xlink:href="#as"/><use transform="matrix(0.05,0,0,0.05,99.9,0)" xlink:href="#aB"/><use transform="matrix(0.05,0,0,0.05,109.9,0)" xlink:href="#ar"/><use transform="matrix(0.05,0,0,0.05,118.9,0)" xlink:href="#aB"/><use transform="matrix(0.05,0,0,0.05,128.9,0)" xlink:href="#aH"/><use transform="matrix(0.05,0,0,0.05,138.9,0)" xlink:href="#aB"/><use transform="matrix(0.05,0,0,0.05,148.9,0)" xlink:href="#as"/><use transform="matrix(0.05,0,0,0.05,154.85,0)" xlink:href="#ay"/></g><path d="M141 0L90-78 38 0H4l68-98-65-92h35l48 74 47-74h35l-64 92 68 98h-35" id="bt"/><g id="ai"><use transform="matrix(0.05,0,0,0.05,0,0)" xlink:href="#aG"/><use transform="matrix(0.05,0,0,0.05,5,0)" xlink:href="#aB"/><use transform="matrix(0.05,0,0,0.05,15,0)" xlink:href="#ar"/><use transform="matrix(0.05,0,0,0.05,24,0)" xlink:href="#aW"/><use transform="matrix(0.05,0,0,0.05,34,0)" xlink:href="#au"/><use transform="matrix(0.05,0,0,0.05,44,0)" xlink:href="#aO"/><use transform="matrix(0.05,0,0,0.05,56,0)" xlink:href="#bt"/><use transform="matrix(0.05,0,0,0.05,65,0)" xlink:href="#aL"/><use transform="matrix(0.05,0,0,0.05,75,0)" xlink:href="#aE"/><use transform="matrix(0.05,0,0,0.05,78.95,0)" xlink:href="#as"/><use transform="matrix(0.05,0,0,0.05,84.9,0)" xlink:href="#au"/><use transform="matrix(0.05,0,0,0.05,94.9,0)" xlink:href="#ar"/><use transform="matrix(0.05,0,0,0.05,103.9,0)" xlink:href="#aE"/><use transform="matrix(0.05,0,0,0.05,107.85000000000001,0)" xlink:href="#ay"/><use transform="matrix(0.05,0,0,0.05,117.85000000000001,0)" xlink:href="#ax"/><use transform="matrix(0.05,0,0,0.05,127.85000000000001,0)" xlink:href="#aC"/></g><g id="aj"><use transform="matrix(0.05,0,0,0.05,0,0)" xlink:href="#aX"/><use transform="matrix(0.05,0,0,0.05,12.950000000000001,0)" xlink:href="#au"/><use transform="matrix(0.05,0,0,0.05,22.950000000000003,0)" xlink:href="#aD"/><use transform="matrix(0.05,0,0,0.05,27.950000000000003,0)" xlink:href="#aB"/></g><g id="ak"><use transform="matrix(0.05,0,0,0.05,0,0)" xlink:href="#aI"/><use transform="matrix(0.05,0,0,0.05,12,0)" xlink:href="#as"/><use transform="matrix(0.05,0,0,0.05,17.95,0)" xlink:href="#ay"/><use transform="matrix(0.05,0,0,0.05,27.950000000000003,0)" xlink:href="#aH"/><use transform="matrix(0.05,0,0,0.05,37.95,0)" xlink:href="#aq"/><use transform="matrix(0.05,0,0,0.05,47.95,0)" xlink:href="#ar"/><use transform="matrix(0.05,0,0,0.05,56.95,0)" xlink:href="#aD"/><use transform="matrix(0.05,0,0,0.05,61.95,0)" xlink:href="#ay"/><use transform="matrix(0.05,0,0,0.05,71.95,0)" xlink:href="#aQ"/><use transform="matrix(0.05,0,0,0.05,84.9,0)" xlink:href="#ay"/><use transform="matrix(0.05,0,0,0.05,94.9,0)" xlink:href="#az"/><use transform="matrix(0.05,0,0,0.05,109.85000000000001,0)" xlink:href="#aL"/><use transform="matrix(0.05,0,0,0.05,119.85000000000001,0)" xlink:href="#as"/><use transform="matrix(0.05,0,0,0.05,125.80000000000001,0)" xlink:href="#au"/></g><g id="al"><use transform="matrix(0.05,0,0,0.05,0,0)" xlink:href="#aL"/><use transform="matrix(0.05,0,0,0.05,10,0)" xlink:href="#as"/><use transform="matrix(0.05,0,0,0.05,15.949999999999998,0)" xlink:href="#aB"/><use transform="matrix(0.05,0,0,0.05,25.950000000000003,0)" xlink:href="#ar"/><use transform="matrix(0.05,0,0,0.05,34.95,0)" xlink:href="#aE"/><use transform="matrix(0.05,0,0,0.05,38.900000000000006,0)" xlink:href="#ay"/><use transform="matrix(0.05,0,0,0.05,48.900000000000006,0)" xlink:href="#aR"/><use transform="matrix(0.05,0,0,0.05,60.900000000000006,0)" xlink:href="#ar"/><use transform="matrix(0.05,0,0,0.05,69.9,0)" xlink:href="#ay"/><use transform="matrix(0.05,0,0,0.05,79.9,0)" xlink:href="#as"/><use transform="matrix(0.05,0,0,0.05,85.85000000000001,0)" xlink:href="#aH"/><use transform="matrix(0.05,0,0,0.05,95.85000000000001,0)" xlink:href="#au"/><use transform="matrix(0.05,0,0,0.05,105.85000000000001,0)" xlink:href="#aH"/><use transform="matrix(0.05,0,0,0.05,115.85000000000001,0)" xlink:href="#ay"/><use transform="matrix(0.05,0,0,0.05,125.85000000000001,0)" xlink:href="#aC"/></g><g id="am"><use transform="matrix(0.05,0,0,0.05,0,0)" xlink:href="#ar"/><use transform="matrix(0.05,0,0,0.05,9,0)" xlink:href="#au"/><use transform="matrix(0.05,0,0,0.05,19,0)" xlink:href="#ax"/><use transform="matrix(0.05,0,0,0.05,29,0)" xlink:href="#aD"/><use transform="matrix(0.05,0,0,0.05,34,0)" xlink:href="#aE"/><use transform="matrix(0.05,0,0,0.05,37.95,0)" xlink:href="#aH"/><use transform="matrix(0.05,0,0,0.05,47.95,0)" xlink:href="#au"/><use transform="matrix(0.05,0,0,0.05,57.95,0)" xlink:href="#aH"/><use transform="matrix(0.05,0,0,0.05,67.95,0)" xlink:href="#aC"/></g><g id="an"><use transform="matrix(0.05,0,0,0.05,0,0)" xlink:href="#br"/><use transform="matrix(0.05,0,0,0.05,12.950000000000001,0)" xlink:href="#aB"/><use transform="matrix(0.05,0,0,0.05,22.950000000000003,0)" xlink:href="#ar"/><use transform="matrix(0.05,0,0,0.05,31.950000000000003,0)" xlink:href="#aB"/><use transform="matrix(0.05,0,0,0.05,41.95,0)" xlink:href="#aL"/><use transform="matrix(0.05,0,0,0.05,51.95,0)" xlink:href="#ar"/><use transform="matrix(0.05,0,0,0.05,60.95,0)" xlink:href="#aE"/><use transform="matrix(0.05,0,0,0.05,64.9,0)" xlink:href="#ay"/><use transform="matrix(0.05,0,0,0.05,74.9,0)" xlink:href="#ax"/><use transform="matrix(0.05,0,0,0.05,84.9,0)" xlink:href="#aI"/><use transform="matrix(0.05,0,0,0.05,96.9,0)" xlink:href="#as"/><use transform="matrix(0.05,0,0,0.05,102.85000000000001,0)" xlink:href="#ay"/><use transform="matrix(0.05,0,0,0.05,112.85000000000001,0)" xlink:href="#aH"/><use transform="matrix(0.05,0,0,0.05,122.85000000000001,0)" xlink:href="#aq"/><use transform="matrix(0.05,0,0,0.05,132.85000000000002,0)" xlink:href="#ar"/><use transform="matrix(0.05,0,0,0.05,141.85000000000002,0)" xlink:href="#aD"/><use transform="matrix(0.05,0,0,0.05,146.85000000000002,0)" xlink:href="#ay"/></g><path d="M63-220v92h138v28H63V0H30v-248h175v28H63" id="bu"/><g id="ao"><use transform="matrix(0.05,0,0,0.05,0,0)" xlink:href="#aG"/><use transform="matrix(0.05,0,0,0.05,5,0)" xlink:href="#aB"/><use transform="matrix(0.05,0,0,0.05,15,0)" xlink:href="#ar"/><use transform="matrix(0.05,0,0,0.05,24,0)" xlink:href="#aW"/><use transform="matrix(0.05,0,0,0.05,34,0)" xlink:href="#au"/><use transform="matrix(0.05,0,0,0.05,44,0)" xlink:href="#bu"/><use transform="matrix(0.05,0,0,0.05,54.95,0)" xlink:href="#aE"/><use transform="matrix(0.05,0,0,0.05,58.900000000000006,0)" xlink:href="#ax"/><use transform="matrix(0.05,0,0,0.05,68.9,0)" xlink:href="#au"/><use transform="matrix(0.05,0,0,0.05,78.9,0)" xlink:href="#av"/><use transform="matrix(0.05,0,0,0.05,82.85000000000001,0)" xlink:href="#aC"/></g></defs></g></svg>